<svg width="33" height="32" viewBox="0 0 33 32" fill="none" xmlns="http://www.w3.org/2000/svg">
<path d="M27.1188 6.94336L27.1083 6.95613C29.4385 9.29685 30.9662 12.4557 31.2121 16.0106C31.761 23.8542 25.8529 30.6509 18.0189 31.1987C14.3333 31.4582 10.8797 30.2869 8.19427 28.162L8.18262 28.1759C10.968 30.7668 14.7791 32.2519 18.8764 31.9646C26.7127 31.4208 32.6217 24.619 32.076 16.7796C31.798 12.8154 29.9202 9.3372 27.1188 6.94336Z" fill="#26265D"/>
<path d="M1.91101 23.1366C1.45354 23.3899 1.35671 23.7687 1.5887 24.3559C1.80141 24.8878 2.13561 25.122 2.49513 24.9719C2.78136 24.8611 2.83023 24.6123 2.71323 23.976L2.66099 23.725C2.54511 23.0909 2.52382 22.8217 2.60025 22.5451C2.67377 22.2376 2.84928 22.0439 3.11735 21.9377C3.75997 21.677 4.36851 22.078 4.73027 22.9824C5.12073 23.959 4.91003 24.6944 4.14728 25.0124L3.95475 24.5337C4.48776 24.308 4.62403 23.8081 4.33354 23.1005C4.10581 22.5186 3.73351 22.2611 3.34933 22.4175C3.03329 22.5431 2.96426 22.8293 3.07902 23.4889L3.12475 23.7687L3.16307 24.0112C3.24712 24.4965 3.25766 24.6731 3.21103 24.8827C3.14827 25.1411 2.98443 25.3316 2.71636 25.4358C2.11319 25.6772 1.52796 25.3251 1.20027 24.5081C0.850156 23.6207 1.04067 22.9653 1.71735 22.6632L1.91101 23.1366Z" fill="#26265D"/>
<path d="M1.50557 17.9968L3.66765 16.1797L3.67818 16.8467L1.84917 18.3628L2.44181 19.0182L3.72703 18.9895L3.73668 19.5185L0.0735193 19.5972L0.0596199 19.0736L1.49906 19.0406H1.70237L1.88638 19.0384L1.764 18.9066L1.63647 18.7788L0.0159105 17.0222L0 16.3234L1.50557 17.9968Z" fill="#26265D"/>
<path d="M3.13028 12.3079L4.54439 12.8048L4.37314 13.3029L2.95701 12.8048L0.425781 13.571L0.636475 12.9656L2.21219 12.524L2.40361 12.474C2.48138 12.4485 2.53137 12.4411 2.66742 12.4081C2.54504 12.2591 2.51748 12.2284 2.3886 12.0452L1.4194 10.7333L1.61934 10.1523L3.13028 12.3079Z" fill="#26265D"/>
<path d="M5.61229 5.56326L4.83766 6.5134L7.15081 8.4083L6.5974 9.08924L4.28022 7.19435L3.50871 8.14022L2.98535 7.7092L5.08668 5.13672L5.61229 5.56326Z" fill="#26265D"/>
<path d="M10.5658 2.08726L8.71351 3.17255L9.10823 3.85036L10.8075 2.85651L11.1255 3.39692L9.42629 4.38853L9.88062 5.17055L11.7661 4.06419L12.1117 4.65032L9.4626 6.19645L7.6123 3.03L10.2222 1.5L10.5658 2.08726Z" fill="#26265D"/>
<path d="M15.566 1.62417C15.3638 1.29221 15.2871 1.1389 15.1712 0.877324C15.1394 1.14226 15.1074 1.33479 15.0148 1.71135L14.8648 2.41247L15.93 2.24011L15.566 1.62417ZM17.6621 3.51593L16.71 3.57869L16.2323 2.785L14.7534 3.02326L14.5459 3.92656L13.6318 4.15966L14.5947 0.149533L15.4992 0.00585938L17.6621 3.51593Z" fill="#26265D"/>
<path d="M23.5579 4.69287L22.7855 4.39722L23.0823 3.30453C23.109 3.17901 23.1578 3.0044 23.2237 2.7778C23.2876 2.54693 23.3407 2.37143 23.3748 2.23627C23.427 2.08834 23.4694 1.9395 23.5216 1.77767L23.6045 1.51924C23.3896 1.88952 23.3024 2.01818 23.1025 2.31831C23.0249 2.45122 22.9471 2.55993 22.8801 2.65564L21.8396 4.11548L21.1692 3.93661L20.9628 2.18539C20.9458 2.09282 20.9384 1.97044 20.9276 1.79382C20.9117 1.56183 20.9043 1.38744 20.8947 1.26708C20.8924 1.16913 20.8924 1.02455 20.8947 0.821257L20.801 1.26708C20.6956 1.74899 20.6456 1.95542 20.4999 2.53415L20.1947 3.71628L19.3828 3.58762L20.2989 0L21.5341 0.240511L21.7096 1.93973C21.7522 2.33669 21.7628 2.67178 21.7448 3.14091C21.8811 2.87171 21.932 2.78138 22.0896 2.53438C22.1981 2.36515 22.2895 2.22596 22.3769 2.10246L23.3409 0.715014L24.5123 1.11287L23.5579 4.69287Z" fill="#26265D"/>
<path d="M23.4743 16.5398C24.5309 15.8248 25.4129 15.4429 25.9598 15.462C26.2812 15.4716 26.6737 15.5716 26.6737 15.9694C26.6737 16.3823 26.2801 16.727 25.514 17.0025C24.8447 17.245 23.8085 17.3035 22.6838 17.178C22.9944 16.8994 23.2562 16.6835 23.4743 16.5398ZM8.58746 17.8401C7.93319 17.7975 7.61176 17.5326 7.61176 17.0262C7.61176 16.9592 7.65637 15.3483 11.3345 15.1665C11.7537 15.1441 12.2219 15.1282 12.9347 15.2111L12.5198 15.5718L12.2878 15.7802C11.4036 16.5878 9.91618 17.9327 8.58746 17.8401ZM16.547 11.7627C16.1023 12.15 15.2212 13.0002 14.369 13.8163L13.4007 14.7409C12.6187 14.6026 11.8398 14.5324 11.0376 14.5282C9.25003 14.5282 7.61155 15.0251 6.86359 15.7921C6.58274 16.0837 6.43906 16.3975 6.4487 16.7304C6.46259 17.5996 7.4542 18.0306 7.75836 18.1476C9.34574 18.7371 10.6736 18.5659 12.0749 17.5848C12.8473 17.0453 13.7761 16.1783 14.5039 15.477C15.0679 15.6067 15.7073 15.7791 16.3988 15.977L17.0361 16.1653C16.2103 16.976 15.3646 17.8293 14.5792 18.521L14.5196 18.5773C13.4323 19.5371 12.6438 20.2286 11.5065 20.485C10.7011 20.6585 10.1372 20.4924 9.94889 20.3785L9.9043 20.4146C10.5651 20.9584 11.1884 21.2657 12.26 21.1711C13.2846 21.0839 14.4636 20.4433 15.671 19.308L17.2999 17.709L18.4425 16.5748L20.7503 17.2515L20.7898 17.2663L19.362 18.6558L18.1373 19.8751C16.8807 21.0964 16.1978 21.7285 15.4615 22.2467C14.2518 23.1128 13.2079 23.5598 12.2941 23.6203C11.8196 23.6532 11.1355 23.618 10.5651 23.2872L10.5066 23.3148C11.1259 23.8415 11.8844 24.4799 13.1943 24.4478C14.6743 24.3978 15.9839 23.6871 18.0279 21.8112C18.9567 20.9579 19.8791 20.0015 20.6974 19.1556L22.2135 17.6191C23.2125 17.8414 24.103 17.932 25.0906 17.9161C26.5269 17.882 27.757 17.1968 27.7698 16.4074C27.7879 15.8244 27.3058 15.5095 27.0207 15.3275C26.7824 15.1721 26.1418 14.8124 25.2524 14.8124C24.1768 14.8124 23.05 15.2903 21.9105 16.2317L21.1529 16.903L20.8731 16.8274L18.7633 16.2317C19.3846 15.6498 19.9176 15.1495 20.3921 14.7241C21.5507 13.6973 22.8254 13.2739 23.5745 13.2259C24.1192 13.1898 25.065 13.2333 25.4555 13.5121L25.5001 13.4727C24.4617 12.5842 23.5615 12.464 22.8209 12.464C22.0889 12.464 20.9195 12.6949 19.4821 13.8069C18.896 14.2612 18.1373 15.024 17.3404 15.8273L16.2722 15.4985L16.0169 15.4167L14.8944 15.0751L15.5339 14.4697C16.2883 13.7302 17.0042 13.0291 17.5619 12.5546C19.5854 10.8543 20.8601 10.6319 21.7453 10.6225C22.7167 10.6182 23.4902 10.8193 24.0403 11.2183L24.0817 11.1811C22.9465 10.15 22.1252 9.82029 20.7142 9.81065C19.4727 9.80079 17.9929 10.4934 16.547 11.7627Z" fill="#26265D"/>
<path d="M25.6359 1.92636C25.704 1.96245 25.823 2.0456 25.8741 1.95617C25.9039 1.89543 25.8347 1.84343 25.7719 1.8051L25.6177 1.72307L25.5379 1.87212L25.6359 1.92636ZM25.7125 2.42015L25.6146 2.36702L25.5879 2.0075L25.4911 1.95213L25.3432 2.21819L25.2622 2.17448L25.5814 1.59463L25.8347 1.73718C25.9369 1.79456 26.0261 1.87436 25.9559 1.99898C25.8921 2.11285 25.7878 2.1106 25.6868 2.06062L25.7125 2.42015ZM26.0649 2.24352C26.2032 1.99674 26.1086 1.68294 25.865 1.55294C25.6182 1.41778 25.3053 1.49982 25.1701 1.74974C25.035 1.99876 25.1318 2.3083 25.3743 2.44346C25.6148 2.57637 25.9297 2.49344 26.0649 2.24352ZM25.0614 1.76251C25.1977 1.45297 25.5467 1.31154 25.8551 1.44445C26.1637 1.57737 26.3029 1.9286 26.1743 2.2359C26.0434 2.54141 25.6924 2.68284 25.3817 2.54656C25.0722 2.41476 24.9305 2.0669 25.0614 1.76251Z" fill="#26265D"/>
</svg>
