<?xml version="1.0" standalone="no"?>
<!DOCTYPE svg PUBLIC "-//W3C//DTD SVG 20010904//EN"
 "http://www.w3.org/TR/2001/REC-SVG-20010904/DTD/svg10.dtd">
<svg version="1.0" xmlns="http://www.w3.org/2000/svg"
 width="300.000000pt" height="85.000000pt" viewBox="0 0 300.000000 85.000000"
 preserveAspectRatio="xMidYMid meet">
<metadata>
Created by potrace 1.10, written by Peter Selinger 2001-2011
</metadata>
<g transform="translate(0.000000,85.000000) scale(0.100000,-0.100000)"
fill="#000000" stroke="none">
<path d="M576 832 c-6 -18 -11 -20 -26 -12 -26 14 -34 12 -21 -4 9 -11 2 -14
-38 -18 -34 -3 -62 -14 -86 -33 -20 -15 -34 -29 -32 -31 2 -2 25 5 51 17 26
11 57 19 69 16 21 -3 21 -4 2 -11 -45 -17 -71 -36 -92 -66 -40 -57 -26 -66 27
-16 59 55 79 60 45 10 -16 -23 -25 -51 -25 -73 l1 -36 25 52 c41 84 52 85 46
3 -3 -43 -1 -70 5 -70 6 0 13 15 16 33 3 18 13 51 22 73 15 37 17 38 30 20 8
-10 20 -43 26 -72 17 -73 33 -58 26 24 -7 74 -3 73 43 -8 l31 -55 -5 44 c-2
24 -14 57 -26 73 -31 42 -9 34 49 -18 28 -25 51 -43 51 -40 0 4 -9 25 -21 47
-15 30 -32 46 -65 60 -24 11 -44 22 -44 26 0 9 72 -7 102 -23 43 -22 33 -2
-14 29 -28 18 -55 27 -81 27 -34 0 -38 2 -27 15 14 17 3 20 -20 5 -11 -7 -18
-3 -26 12 l-12 21 -6 -21z m71 -79 c13 -20 14 -26 3 -33 -15 -9 -127 -7 -136
3 -4 4 1 17 9 31 27 41 97 40 124 -1z"/>
<path d="M17 608 c11 -13 91 -102 178 -198 87 -96 161 -179 165 -184 5 -4 47
13 95 40 l88 47 -34 18 c-77 41 -186 82 -253 94 l-71 13 60 1 c79 1 130 -12
226 -56 44 -20 81 -34 82 -32 1 2 0 42 -3 88 l-5 83 -265 54 c-146 29 -269 53
-274 54 -5 0 0 -10 11 -22z m303 -79 c91 -18 171 -37 178 -42 6 -5 12 -25 12
-44 0 -30 -3 -34 -17 -28 -78 33 -172 55 -230 55 -64 0 -69 2 -105 37 -40 39
-50 68 -20 60 9 -3 91 -20 182 -38z m65 -178 c36 -17 65 -34 65 -39 0 -5 -16
-17 -36 -27 -34 -16 -37 -16 -56 2 -11 10 -34 35 -50 56 -28 35 -28 37 -9 37
12 0 51 -13 86 -29z"/>
<path d="M880 575 l-255 -52 -6 -84 c-4 -46 -5 -86 -4 -88 2 -1 32 10 67 27
94 44 164 62 237 61 l66 -1 -70 -13 c-77 -14 -152 -41 -234 -84 l-53 -28 82
-46 c45 -26 86 -44 91 -42 4 3 77 81 160 173 84 92 166 182 183 200 38 41 53
42 -264 -23z m170 -15 c0 -5 -16 -28 -36 -50 -36 -39 -38 -40 -105 -40 -45 0
-94 -8 -146 -25 -101 -32 -103 -32 -103 10 0 28 5 36 23 40 31 7 350 73 360
74 4 1 7 -3 7 -9z m-188 -217 c-16 -21 -40 -47 -51 -58 -22 -19 -23 -19 -57 0
-18 10 -34 22 -34 27 0 13 120 67 148 68 24 0 24 0 -6 -37z"/>
<path d="M2490 560 l0 -70 -69 0 c-64 0 -70 -2 -105 -34 l-36 -35 0 -105 0
-106 68 0 c65 0 70 2 102 35 l34 35 -67 0 -67 0 0 70 0 70 70 0 70 0 0 -105 0
-105 35 0 35 0 0 210 0 210 -35 0 -35 0 0 -70z"/>
<path d="M2602 595 c0 -34 1 -35 39 -35 38 0 39 1 39 35 0 34 -1 35 -39 35
-38 0 -39 -1 -39 -35z"/>
<path d="M1348 525 c-37 -34 -38 -37 -38 -105 l0 -70 105 0 105 0 0 -35 0 -35
-105 0 -105 0 0 -35 0 -35 103 0 103 0 37 38 c35 36 37 41 37 105 l0 67 -105
0 -105 0 0 35 0 35 105 0 105 0 0 35 0 35 -102 0 -103 -1 -37 -34z"/>
<path d="M1672 457 c-32 -33 -33 -35 -35 -140 l-2 -107 71 0 c67 0 72 2 104
35 l34 35 -70 0 -69 0 0 70 0 70 74 0 73 0 -4 -105 -4 -105 38 0 38 0 0 140 0
140 -108 0 -108 0 -32 -33z"/>
<path d="M1960 350 l0 -140 103 0 103 0 37 38 37 38 0 102 0 102 -35 0 -35 0
0 -105 0 -105 -70 0 -70 0 0 105 0 105 -35 0 -35 0 0 -140z"/>
<path d="M2605 350 l0 -140 38 0 37 0 0 140 0 140 -37 0 -38 0 0 -140z"/>
<path d="M2752 457 c-32 -33 -32 -33 -32 -140 l0 -107 68 0 c65 0 70 2 102 35
l34 35 -67 0 -67 0 0 70 0 70 70 0 70 0 0 -105 0 -105 33 0 32 0 0 140 0 140
-106 0 -105 0 -32 -33z m224 -102 c0 -81 0 -83 -3 -15 -3 52 -9 80 -21 93 -16
18 -16 19 3 16 18 -4 20 -12 21 -94z"/>
<path d="M485 235 c-38 -25 -70 -49 -70 -55 0 -10 147 -182 151 -177 1 1 -1
64 -5 139 l-6 137 -70 -44z m35 -77 l0 -43 -27 27 c-22 23 -24 29 -13 42 24
30 40 19 40 -26z"/>
<path d="M607 143 c-4 -75 -6 -137 -5 -139 5 -4 153 167 153 176 0 7 -63 52
-131 93 -8 4 -13 -35 -17 -130z m83 41 c11 -13 9 -19 -13 -41 -23 -23 -27 -25
-33 -10 -9 24 4 67 20 67 7 0 19 -7 26 -16z"/>
<path d="M320 191 c-19 -10 -55 -22 -80 -26 -45 -8 -45 -8 -15 -17 38 -11 106
-3 146 17 25 13 28 19 18 31 -15 18 -26 17 -69 -5z"/>
<path d="M780 195 c-10 -13 -6 -18 31 -35 45 -20 94 -24 139 -11 21 6 15 9
-36 19 -33 7 -69 19 -80 27 -25 19 -39 19 -54 0z"/>
</g>
</svg>
