<?xml version="1.0" encoding="utf-8"?>
<svg viewBox="142.7993 97.6 211.3184 154.59" xmlns="http://www.w3.org/2000/svg">
  <defs>
    <style type="text/css">
	.st0{opacity:0.974;fill-rule:evenodd;clip-rule:evenodd;fill:#006936;enable-background:new    ;}
	.st1{opacity:0.988;fill-rule:evenodd;clip-rule:evenodd;fill:#006936;enable-background:new    ;}
	.st2{opacity:0.952;fill-rule:evenodd;clip-rule:evenodd;fill:#006936;enable-background:new    ;}
	.st3{opacity:0.976;fill-rule:evenodd;clip-rule:evenodd;fill:#006936;enable-background:new    ;}
	.st4{opacity:0.975;fill-rule:evenodd;clip-rule:evenodd;fill:#006936;enable-background:new    ;}
	.st5{opacity:0.983;fill-rule:evenodd;clip-rule:evenodd;fill:#006936;enable-background:new    ;}
	.st6{opacity:0.973;fill-rule:evenodd;clip-rule:evenodd;fill:#006936;enable-background:new    ;}
	.st7{opacity:0.946;fill-rule:evenodd;clip-rule:evenodd;fill:#006936;enable-background:new    ;}
	.st8{opacity:0.977;fill-rule:evenodd;clip-rule:evenodd;fill:#006936;enable-background:new    ;}
	.st9{opacity:0.97;fill-rule:evenodd;clip-rule:evenodd;fill:#006936;enable-background:new    ;}
	.st10{opacity:0.984;fill-rule:evenodd;clip-rule:evenodd;fill:#006936;enable-background:new    ;}
	.st11{opacity:0.972;fill-rule:evenodd;clip-rule:evenodd;fill:#006936;enable-background:new    ;}
</style>
  </defs>
  <path class="st0" d="M 248.29 97.6 C 249.92 99.76 250.9 102.2 251.25 104.94 C 254.2 102.4 257.57 101.62 261.37 102.61 C 259.61 103.48 258.17 104.73 257.07 106.37 C 269.66 105.05 279.51 109.59 286.63 119.98 C 286.54 120.16 286.42 120.19 286.27 120.07 C 279.09 114.91 271.09 112.7 262.27 113.44 C 275.5 116.69 283.17 125.02 285.29 138.43 C 280.92 133.22 276 128.66 270.51 124.73 C 268.92 123.64 267.25 122.74 265.49 122.04 C 271.49 129.48 273.73 137.92 272.21 147.39 C 269.83 138.99 265.35 131.94 258.78 126.25 C 260.04 132.64 260.28 139.09 259.5 145.6 C 259.27 147.49 258.88 149.34 258.34 151.15 C 256.89 145.27 255.13 139.47 253.06 133.77 C 251.92 130.72 250.37 127.91 248.4 125.35 C 246.43 128.04 244.88 130.96 243.74 134.13 C 241.72 139.72 239.98 145.4 238.55 151.15 C 236.49 142.83 236.34 134.53 238.1 126.25 C 231.53 131.92 227.08 138.96 224.76 147.39 C 223.16 137.91 225.4 129.46 231.48 122.04 C 228.28 123.5 225.29 125.36 222.52 127.59 C 218.58 130.81 215 134.4 211.77 138.34 C 213.18 126.88 219.39 119 230.4 114.7 C 231.8 114.17 233.23 113.76 234.7 113.45 C 230.45 112.93 226.27 113.29 222.16 114.52 C 217.91 115.78 213.97 117.66 210.34 120.16 C 213.94 114.33 219.01 110.18 225.57 107.71 C 230.26 106.23 235.04 105.81 239.9 106.46 C 238.8 104.81 237.37 103.52 235.6 102.61 C 239.31 101.66 242.66 102.37 245.63 104.76 C 246.1 102.22 246.99 99.83 248.29 97.6 Z" transform="matrix(1, 0, 0, 1, -7.105427357601002e-15, -7.105427357601002e-15)"/>
  <path class="st1" d="M 143.14 137.55 C 176.1 143.99 209.03 150.56 241.93 157.25 C 242.44 168.02 242.82 178.76 243.09 189.49 C 232.75 184.16 222.06 179.65 211.03 175.97 C 199.43 172.17 187.61 171.27 175.56 173.28 C 182.74 173.49 189.85 174.33 196.88 175.79 C 205.41 178.21 213.65 181.38 221.6 185.28 C 227.86 188.41 234.01 191.73 240.05 195.22 C 230.23 201.3 220.25 207.15 210.14 212.77 C 211.77 214.79 213.5 216.73 215.33 218.59 C 215.51 218.71 215.69 218.71 215.87 218.59 C 225 212.69 234.22 206.92 243.54 201.3 C 244.31 218.27 244.94 235.23 245.42 252.17 C 235.46 241.16 225.46 230.18 215.42 219.21 C 212.34 221.21 209.08 222.92 205.66 224.32 C 198.94 226.49 192.14 226.85 185.24 225.39 C 182.8 224.76 180.35 224.17 177.9 223.6 C 189.56 223.05 200.12 219.41 209.61 212.67 C 187.31 188.15 165.06 163.58 142.89 138.96 C 142.71 138.44 142.8 137.96 143.14 137.55 Z" transform="matrix(1, 0, 0, 1, -7.105427357601002e-15, -7.105427357601002e-15)"/>
  <path class="st1" d="M 352.54 137.55 C 353.79 137.28 354.3 137.76 354.06 138.98 C 331.75 163.5 309.51 188.07 287.34 212.69 C 296.8 219.47 307.37 223.11 319.05 223.62 C 315.27 224.63 311.44 225.46 307.59 226.13 C 299.78 226.88 292.44 225.39 285.56 221.65 C 284.19 220.84 282.81 220.04 281.44 219.23 C 271.46 230.22 261.49 241.21 251.53 252.19 C 251.47 251.86 251.41 251.53 251.35 251.2 C 251.97 234.57 252.66 217.94 253.41 201.31 C 262.68 207 271.91 212.77 281.08 218.6 C 281.26 218.72 281.44 218.72 281.62 218.6 C 283.31 216.66 285.04 214.74 286.81 212.87 C 276.71 207.17 266.74 201.29 256.9 195.23 C 268.33 188.32 280.33 182.56 292.9 177.94 C 297.38 176.33 301.98 175.19 306.69 174.54 C 311.57 173.92 316.46 173.5 321.38 173.29 C 309.53 171.31 297.89 172.14 286.45 175.8 C 275.23 179.53 264.37 184.09 253.85 189.5 C 254.06 178.75 254.45 168.01 255.01 157.26 C 287.53 150.67 320.04 144.1 352.54 137.55 Z" transform="matrix(1, 0, 0, 1, -7.105427357601002e-15, -7.105427357601002e-15)"/>
</svg>